<svg xmlns="http://www.w3.org/2000/svg" id="Layer_1" viewBox="0 0 64 64"><circle cx="14" cy="51" r="1"></circle><circle cx="10" cy="51" r="1"></circle><path d="m63 9h-54v-8c0-.552-.447-1-1-1-4.411 0-8 3.589-8 8v43c0 4.411 3.589 8 8 8h25.392l-3.119 3.314c-.274.291-.349.716-.19 1.082s.519.604.918.604h32c.553 0 1-.448 1-1v-53c0-.552-.447-1-1-1zm-61-1c0-2.968 2.166-5.439 5-5.917v40.979c-1.981.249-3.741 1.225-5 2.652zm6 49c-3.309 0-6-2.691-6-6s2.691-6 6-6c.553 0 1-.448 1-1v-33h53v17.603l-26.726 28.397zm51 5v-1c0-.552-.447-1-1-1s-1 .448-1 1v1h-4v-1c0-.552-.447-1-1-1s-1 .448-1 1v1h-4v-1c0-.552-.447-1-1-1s-1 .448-1 1v1h-4v-1c0-.552-.447-1-1-1s-1 .448-1 1v1h-5.685l28.685-30.478v6.478h-1c-.553 0-1 .448-1 1s.447 1 1 1h1v4h-1c-.553 0-1 .448-1 1s.447 1 1 1h1v4h-1c-.553 0-1 .448-1 1s.447 1 1 1h1v4h-1c-.553 0-1 .448-1 1s.447 1 1 1h1v4z"></path><path d="m54.207 24.792c-.617-.616-1.381-1.025-2.207-1.212v-3.581c0-.552-.447-1-1-1h-37c-.553 0-1 .448-1 1v16c0 .552.447 1 1 1h6v9c0 .552.447 1 1 1h4c.553 0 1-.448 1-1s-.447-1-1-1h-3v-9c0-.552-.447-1-1-1h-6v-4h10c.553 0 1-.448 1-1v-5c0-.552-.447-1-1-1s-1 .448-1 1v4h-9v-8h24v4.52l-4.351 3.48h-4.649c-.553 0-1 .448-1 1s.447 1 1 1h5c.228 0 .447-.077.625-.219l5-4c.237-.189.375-.477.375-.781v-5h9v2.581c-.826.187-1.59.595-2.207 1.212l-10.207 10.207h-11.586c-.553 0-1 .448-1 1s.447 1 1 1h9.586l-5.293 5.293c-.182.173-.228.353-.229.357l-2.756 7.35h-9.307c-.553 0-1 .448-1 1s.447 1 1 1h10c.118 0 8.352-3.063 8.352-3.063.004-.002.352-.227.355-.229l17.5-17.5c1.769-1.769 1.769-4.646 0-6.415zm-15.5 11.915s6.793-6.793 6.793-6.793l3.586 3.586-13.086 13.086-3.586-3.586zm-7.316 8.098 2.803 2.803-4.484 1.682 1.68-4.485zm21.402-15.012-2.293 2.293-3.586-3.586 2.293-2.293c.965-.964 2.621-.963 3.586 0 .988.989.988 2.597 0 3.586z"></path><path d="m57.364 43.069c-.383-.151-.82-.05-1.099.253l-12 13c-.27.292-.341.715-.182 1.079s.519.599.916.599h12c.553 0 1-.448 1-1v-13c0-.412-.252-.781-.636-.931zm-1.364 12.931h-8.716l8.716-9.442z"></path><path d="m16 16h23c.553 0 1-.448 1-1s-.447-1-1-1h-23c-.553 0-1 .448-1 1s.447 1 1 1z"></path><path d="m44 16h5c.553 0 1-.448 1-1s-.447-1-1-1h-5c-.553 0-1 .448-1 1s.447 1 1 1z"></path></svg>