<svg xmlns="http://www.w3.org/2000/svg" width="98" height="98" viewBox="0 0 98 98" fill="none"><path d="M8.16667 98C5.98889 98 4.08333 97.1833 2.45 95.55C0.816667 93.9167 0 92.0111 0 89.8333V66.4222H8.16667V89.8333H31.5778V98H8.16667ZM66.4222 98V89.8333H89.8333V66.4222H98V89.8333C98 92.0111 97.1833 93.9167 95.55 95.55C93.9167 97.1833 92.0111 98 89.8333 98H66.4222ZM0 31.5778V8.16667C0 5.98889 0.816667 4.08333 2.45 2.45C4.08333 0.816667 5.98889 0 8.16667 0H31.5778V8.16667H8.16667V31.5778H0ZM89.8333 31.5778V8.16667H66.4222V0H89.8333C92.0111 0 93.9167 0.816667 95.55 2.45C97.1833 4.08333 98 5.98889 98 8.16667V31.5778H89.8333ZM49 63.1556C44.9167 63.1556 41.5365 61.817 38.8597 59.1403C36.183 56.4635 34.8444 53.0833 34.8444 49C34.8444 44.9167 36.183 41.5365 38.8597 38.8597C41.5365 36.183 44.9167 34.8444 49 34.8444C53.0833 34.8444 56.4635 36.183 59.1403 38.8597C61.817 41.5365 63.1556 44.9167 63.1556 49C63.1556 53.0833 61.817 56.4635 59.1403 59.1403C56.4635 61.817 53.0833 63.1556 49 63.1556Z" fill="black"></path></svg>