<svg xmlns="http://www.w3.org/2000/svg" width="92" height="92" viewBox="0 0 92 92" fill="none"><path d="M19.1318 92H6.27273C4.6 92 3.13636 91.3727 1.88182 90.1182C0.627273 88.8636 0 87.4 0 85.7273V72.8682H6.27273V85.7273H19.1318V92ZM72.8682 92V85.7273H85.7273V72.8682H92V85.7273C92 87.4 91.3727 88.8636 90.1182 90.1182C88.8636 91.3727 87.4 92 85.7273 92H72.8682ZM45.9132 72.6591C37.6075 72.6591 30.1091 70.2719 23.4182 65.4977C16.7273 60.7236 11.6742 54.2242 8.25909 46C11.6742 37.706 16.7273 31.1719 23.4182 26.3977C30.1091 21.6236 37.619 19.2364 45.9477 19.2364C54.2764 19.2364 61.8037 21.6236 68.5295 26.3977C75.2554 31.1719 80.2909 37.706 83.6364 46C80.2909 54.2242 75.2439 60.7236 68.495 65.4977C61.7462 70.2719 54.2189 72.6591 45.9132 72.6591ZM46.023 59.8C49.841 59.8 53.1091 58.4507 55.8273 55.752C58.5455 53.0533 59.9045 49.795 59.9045 45.977C59.9045 42.159 58.548 38.8909 55.8346 36.1727C53.1212 33.4545 49.8456 32.0955 46.0073 32.0955C42.169 32.0955 38.9083 33.452 36.225 36.1654C33.5417 38.8788 32.2 42.1544 32.2 45.9927C32.2 49.831 33.5493 53.0917 36.248 55.775C38.9467 58.4583 42.205 59.8 46.023 59.8ZM46 53.5273C43.9091 53.5273 42.1318 52.7955 40.6682 51.3318C39.2045 49.8682 38.4727 48.0909 38.4727 46C38.4727 43.9091 39.2045 42.1145 40.6682 40.6159C42.1318 39.1174 43.9091 38.3682 46 38.3682C48.0909 38.3682 49.8855 39.11 51.3841 40.594C52.8826 42.0779 53.6318 43.8798 53.6318 46C53.6318 48.0909 52.89 49.8682 51.406 51.3318C49.9221 52.7955 48.1202 53.5273 46 53.5273ZM0 19.1318V6.27273C0 4.6 0.627273 3.13636 1.88182 1.88182C3.13636 0.627273 4.6 0 6.27273 0H19.1318V6.27273H6.27273V19.1318H0ZM85.7273 19.1318V6.27273H72.8682V0H85.7273C87.4 0 88.8636 0.627273 90.1182 1.88182C91.3727 3.13636 92 4.6 92 6.27273V19.1318H85.7273Z" fill="black"></path></svg>